<svg xmlns="http://www.w3.org/2000/svg" viewBox="0 0 64 64" fill="none">
  <defs>
    <linearGradient id="gPin" x1="0%" y1="0%" x2="100%" y2="100%">
      <stop offset="0%" style="stop-color:#8b5cf6"/>
      <stop offset="100%" style="stop-color:#ec4899"/>
    </linearGradient>
  </defs>

  <!-- Pin shape -->
  <path d="M32 4C20.4 4 11 13 11 24c0 15 21 36 21 36s21-21 21-36C53 13 43.6 4 32 4z" fill="url(#gPin)"/>

  <!-- Left glass -->
  <path d="M25 16l-2.2 12c0 1.8 2.5 3 5 3s5-1.2 5-3L31 16z" fill="white" opacity="0.92" transform="rotate(-12, 28, 25)"/>
  <line x1="28" y1="31" x2="28" y2="35" stroke="white" stroke-width="1.8" opacity="0.92" transform="rotate(-12, 28, 25)"/>
  <ellipse cx="28" cy="35.8" rx="3.2" ry="1" fill="white" opacity="0.92" transform="rotate(-12, 28, 25)"/>

  <!-- Right glass -->
  <path d="M33 16l-2.2 12c0 1.8 2.5 3 5 3s5-1.2 5-3L39 16z" fill="white" opacity="0.92" transform="rotate(12, 36, 25)"/>
  <line x1="36" y1="31" x2="36" y2="35" stroke="white" stroke-width="1.8" opacity="0.92" transform="rotate(12, 36, 25)"/>
  <ellipse cx="36" cy="35.8" rx="3.2" ry="1" fill="white" opacity="0.92" transform="rotate(12, 36, 25)"/>

  <!-- Sparkles -->
  <circle cx="31" cy="14" r="1.3" fill="white" opacity="0.85"/>
  <circle cx="35" cy="15.5" r="0.9" fill="white" opacity="0.6"/>
</svg>
